# xmcd
#
# Track frame offsets: 
#        150
#        21685
#        40307
#        54652
#        83675
#        99137
#        117000
#        141720
#        165697
#        187075
#        203930
#        225657
#        243795
#        260395
#
# Disc length: 3701 seconds
#
# Revision: 5
# Processed by: cddbd v1.5.2PL0 Copyright (c) Steve Scherf et al.
# Submitted via: ExactAudioCopyFreeDBPlugin 1.0
#
DISCID=c10e730e
DTITLE=John Lee Hooker - Chill Out (Remaster and Bonus Tracks 2007)
DYEAR=1995
DGENRE=Blues
TTITLE0=Chill Out (Things Gonna Change) - feat. Carlos Santana -
TTITLE1=Deep Blue Sea
TTITLE2=Kiddio
TTITLE3=Medley (Serves Me Right to Suffer - Syndicator) - feat. Van Mo
TTITLE3=rrison -
TTITLE4=One Bourbon, One Scotch, One Beer
TTITLE5=Tupelo
TTITLE6=Woman On My Mind
TTITLE7=Annie Mae
TTITLE8=Too Young
TTITLE9=Talkin' the Blues
TTITLE10=If You've Never Been In Love
TTITLE11=We'll Meet Again
TTITLE12=Down So Low
TTITLE13=Fire Down Below
EXTD=
EXTT0=
EXTT1=
EXTT2=
EXTT3=
EXTT4=
EXTT5=
EXTT6=
EXTT7=
EXTT8=
EXTT9=
EXTT10=
EXTT11=
EXTT12=
EXTT13=
PLAYORDER=
